<?xml version="1.0" encoding="UTF-8"?>
<svg version="1.1" xmlns="http://www.w3.org/2000/svg" width="600" height="480">
<path d="M0 0 C198 0 396 0 600 0 C600 158.4 600 316.8 600 480 C402 480 204 480 0 480 C0 321.6 0 163.2 0 0 Z " fill="#221E24" transform="translate(0,0)"/>
<path d="M0 0 C37.32279685 32.56277273 59.9849556 77.47986446 63.625 126.9375 C66.11242089 171.79759506 53.00529041 216.82932772 24.625 251.9375 C24.20105957 252.4629541 23.77711914 252.9884082 23.34033203 253.52978516 C-7.77582177 291.85369983 -49.81504145 313.98861503 -98.4375 321.3125 C-145.9000847 326.14342415 -194.77928789 313.2035745 -232.23999023 283.23291016 C-264.40512021 256.8907386 -287.8462178 222.78662539 -297.375 181.9375 C-297.66890625 180.74125 -297.9628125 179.545 -298.265625 178.3125 C-308.8102167 132.82602599 -300.61212204 83.82019217 -276.375 43.9375 C-249.05981077 1.03995043 -207.7032439 -28.88057523 -158.13964844 -40.46044922 C-102.16957128 -52.6489171 -43.35614617 -36.93057368 0 0 Z " fill="#ECB46C" transform="translate(419.375,101.0625)"/>
<path d="M0 0 C0.63035156 0.16628906 1.26070312 0.33257812 1.91015625 0.50390625 C25.39105849 6.80593767 46.5499486 18.974459 62 38 C62.69996094 38.85078125 63.39992188 39.7015625 64.12109375 40.578125 C83.51209221 65.17814385 91.8396053 96.10209287 88.78173828 127.22119141 C88.17364474 131.56761744 87.15040539 135.76947697 86 140 C85.83371094 140.63035156 85.66742188 141.26070312 85.49609375 141.91015625 C79.41507071 164.56759765 68.04104784 182.81100455 51 199 C50.3915625 199.59167969 49.783125 200.18335938 49.15625 200.79296875 C26.78158566 221.74894966 -4.0638009 230.04111312 -34.1015625 229.3125 C-65.99501612 227.77484856 -94.09957578 211.83557949 -115.40136719 188.79248047 C-135.75650638 165.96910968 -144.35612509 135.61056321 -143.14794922 105.44824219 C-141.1657156 72.64652817 -125.22961464 44.60930491 -101 23 C-74.18853786 0.07639387 -34.0267544 -9.25288935 0 0 Z " fill="#EFB66F" transform="translate(327,127)"/>
<path d="M0 0 C16.83 0 33.66 0 51 0 C55.455 9.405 55.455 9.405 60 19 C79.90546954 51.34638801 109.32354449 72.43544466 146.06640625 81.4921875 C180.6235815 87.47412196 217.42145248 81.26068568 246.58007812 61.33251953 C253.14448668 56.68778976 259.18246127 51.55406325 265 46 C265.5878125 45.47535156 266.175625 44.95070313 266.78125 44.41015625 C279.56755402 32.55869993 288.59091177 16.02272057 295 0 C311.83 0 328.66 0 346 0 C344.8721865 7.89469453 344.8721865 7.89469453 343.65234375 11.27734375 C343.24556396 12.4060791 343.24556396 12.4060791 342.83056641 13.55761719 C342.53585449 14.34297852 342.24114258 15.12833984 341.9375 15.9375 C341.62731934 16.76797852 341.31713867 17.59845703 340.99755859 18.45410156 C337.88093058 26.60432499 334.18452386 34.34897184 330 42 C329.66274902 42.62326172 329.32549805 43.24652344 328.97802734 43.88867188 C323.13481644 54.5489959 315.90714947 63.79655494 308 73 C307.15824219 73.98484375 306.31648438 74.9696875 305.44921875 75.984375 C300.95529056 81.10698745 296.26138038 85.67876792 291 90 C289.95572073 90.89191721 288.91145069 91.78384522 287.8671875 92.67578125 C262.47652178 114.0162075 232.46675149 126.42152036 200 132 C198.15921875 132.3403125 198.15921875 132.3403125 196.28125 132.6875 C152.71348253 139.75254337 105.99058505 126.85735516 70 102 C64.44698599 97.92450368 59.19044418 93.52346536 54 89 C53.02160156 88.16210938 52.04320312 87.32421875 51.03515625 86.4609375 C45.90238648 81.96879914 41.31986449 77.27126322 37 72 C36.56429687 71.48195801 36.12859375 70.96391602 35.6796875 70.43017578 C22.01359549 54.16515117 11.91537943 36.22194577 4.0625 16.5 C3.76778809 15.77063232 3.47307617 15.04126465 3.16943359 14.28979492 C2.89824707 13.5857251 2.62706055 12.88165527 2.34765625 12.15625 C2.11054932 11.54587891 1.87344238 10.93550781 1.62915039 10.30664062 C0.71388487 6.95102223 0.4314178 3.45134241 0 0 Z " fill="#241F25" transform="translate(127,286)"/>
<path d="M0 0 C45.58801546 -1.86285813 91.49143618 14.54297057 125.40478516 44.97802734 C126.56107422 46.05503906 126.56107422 46.05503906 127.74072266 47.15380859 C129.62156183 48.89830441 131.54846547 50.53770302 133.52978516 52.16552734 C155.99666252 71.3058018 172.15778331 101.91471642 179.84228516 130.10302734 C179.84228516 131.42302734 179.84228516 132.74302734 179.84228516 134.10302734 C163.01228516 134.10302734 146.18228516 134.10302734 128.84228516 134.10302734 C126.53228516 128.82302734 124.22228516 123.54302734 121.84228516 118.10302734 C120.32860684 115.27846015 118.8811493 112.64403911 117.15478516 109.97802734 C116.73962646 109.32753418 116.32446777 108.67704102 115.89672852 108.00683594 C96.08268851 77.78923396 65.61020271 59.42105769 30.83447266 51.64599609 C4.77406551 46.91701882 -23.19619309 49.58054694 -47.15771484 61.10302734 C-48.17937744 61.59029297 -48.17937744 61.59029297 -49.22167969 62.08740234 C-59.46319073 67.0361965 -68.48653492 72.75306434 -77.15771484 80.10302734 C-77.66641113 80.5280957 -78.17510742 80.95316406 -78.69921875 81.39111328 C-94.96708 95.09633522 -108.40022705 113.83056395 -115.15771484 134.10302734 C-131.98771484 134.10302734 -148.81771484 134.10302734 -166.15771484 134.10302734 C-165.03015448 125.08254441 -165.03015448 125.08254441 -163.62646484 121.32568359 C-163.15950195 120.07356079 -163.15950195 120.07356079 -162.68310547 118.79614258 C-162.34472656 117.92803955 -162.00634766 117.05993652 -161.65771484 116.16552734 C-161.30386719 115.25037354 -160.95001953 114.33521973 -160.58544922 113.39233398 C-150.25835707 87.34626817 -133.04024319 61.85467024 -111.15771484 44.10302734 C-110.15224609 43.27158203 -109.14677734 42.44013672 -108.11083984 41.58349609 C-77.26560916 16.44423157 -39.7990724 1.90034041 0 0 Z " fill="#231F25" transform="translate(293.15771484375,59.89697265625)"/>
<path d="M0 0 C1.29720394 3.89161182 0.41126142 5.20728256 -1.04296875 9.0078125 C-1.51545543 10.27173506 -1.98588891 11.5364265 -2.45458984 12.80175781 C-2.70690369 13.47952271 -2.95921753 14.1572876 -3.21917725 14.85559082 C-4.59201716 18.62588376 -5.84998497 22.43407358 -7.11328125 26.2421875 C-7.50614822 27.4226767 -7.50614822 27.4226767 -7.9069519 28.62701416 C-8.71013999 31.04256709 -9.51136334 33.45876603 -10.3125 35.875 C-10.86769639 37.54562017 -11.42303411 39.21619337 -11.97851562 40.88671875 C-13.32063487 44.92394145 -14.66085919 48.96178843 -16 53 C-15.51869629 52.64397705 -15.03739258 52.2879541 -14.54150391 51.92114258 C-0.44353382 41.4985123 13.72699129 31.18166197 28 21 C28 24.38007808 27.62801879 24.84054077 25.61328125 27.37890625 C25.09314453 28.04422363 24.57300781 28.70954102 24.03710938 29.39501953 C23.46798828 30.11028809 22.89886719 30.82555664 22.3125 31.5625 C21.1189939 33.09081039 19.92765585 34.62081591 18.73828125 36.15234375 C17.81329834 37.3431958 17.81329834 37.3431958 16.86962891 38.55810547 C13.83373516 42.52324117 10.91268824 46.56890283 8 50.625 C7.47317627 51.3579126 6.94635254 52.0908252 6.40356445 52.84594727 C4.93316073 54.89549419 3.46583654 56.94718431 2 59 C1.10678224 60.25049643 0.21355228 61.50098415 -0.6796875 62.75146484 C-1.44539063 63.82348145 -2.21109375 64.89549805 -3 66 C-1.82083008 65.59160889 -0.64166016 65.18321777 0.57324219 64.76245117 C4.99969628 63.23092952 9.42846093 61.70618476 13.85791016 60.18334961 C15.76511044 59.52663258 17.67170156 58.86814338 19.57763672 58.20776367 C39.88877885 51.17288723 39.88877885 51.17288723 50 49 C47.63547373 51.44062373 45.31776897 53.62504754 42.5234375 55.55859375 C41.86110107 56.02080322 41.19876465 56.4830127 40.51635742 56.95922852 C39.80970947 57.44705811 39.10306152 57.9348877 38.375 58.4375 C36.85744047 59.4964901 35.34053643 60.55642002 33.82421875 61.6171875 C33.03708496 62.16729492 32.24995117 62.71740234 31.43896484 63.28417969 C27.32972256 66.17504603 23.25798493 69.11742368 19.1875 72.0625 C18.42937012 72.610271 17.67124023 73.15804199 16.89013672 73.72241211 C13.57252049 76.12305211 10.27643936 78.54267048 7 81 C24.82 81.33 42.64 81.66 61 82 C58.31243269 83.79171154 56.41421811 84.63753822 53.39257812 85.60400391 C52.46151245 85.90416412 51.53044678 86.20432434 50.57116699 86.51358032 C49.06640808 86.9902565 49.06640808 86.9902565 47.53125 87.4765625 C46.49939575 87.80667328 45.4675415 88.13678406 44.40441895 88.47689819 C42.22298692 89.17343639 40.0407956 89.86760045 37.85791016 90.55957031 C34.51113899 91.62146571 31.16756417 92.6929991 27.82421875 93.765625 C25.70591415 94.44068492 23.58743046 95.11518316 21.46875 95.7890625 C20.46557739 96.11089508 19.46240479 96.43272766 18.42883301 96.76431274 C17.49776733 97.05816864 16.56670166 97.35202454 15.60742188 97.65478516 C14.37856262 98.04544662 14.37856262 98.04544662 13.12487793 98.44400024 C11 99 11 99 8 99 C8 99.66 8 100.32 8 101 C9.155 101.226875 10.31 101.45375 11.5 101.6875 C22.7717669 104.20210634 33.73436684 108.2211882 44.66918945 111.89599609 C50.08068172 113.70993734 55.51256252 115.42822142 61 117 C61 117.33 61 117.66 61 118 C43.18 118.33 25.36 118.66 7 119 C21.95041954 130.02322912 21.95041954 130.02322912 37.01953125 140.8671875 C40.72610236 143.51959618 44.37135885 146.24223272 48 149 C44.57330388 150.14223204 43.79335504 149.85045096 40.46850586 148.75244141 C39.55423325 148.45528229 38.63996063 148.15812317 37.69798279 147.85195923 C36.71354691 147.52182831 35.72911102 147.19169739 34.71484375 146.8515625 C33.70281387 146.51957855 32.690784 146.1875946 31.64808655 145.84555054 C28.40841345 144.78035371 25.1730532 143.7026381 21.9375 142.625 C19.75221068 141.90546732 17.5666667 141.18670754 15.38085938 140.46875 C11.38644452 139.15243566 7.39231198 137.83535258 3.40209961 136.50634766 C2.59840439 136.23907867 1.79470917 135.97180969 0.96665955 135.69644165 C-1 135 -1 135 -3 134 C-1.12678504 136.60545459 0.74872321 139.20924954 2.625 141.8125 C3.20241943 142.61405518 3.77983887 143.41561035 4.37475586 144.24145508 C7.50296658 148.57453772 10.65124137 152.89080993 13.83984375 157.1796875 C14.4622998 158.01781982 15.08475586 158.85595215 15.72607422 159.71948242 C16.9236122 161.32888304 18.12431285 162.93593661 19.32861328 164.5402832 C22.56090111 168.88658455 25.41929911 173.2361145 28 178 C25.24678614 176.69302984 22.80366726 175.24417133 20.33984375 173.453125 C19.63738525 172.94434814 18.93492676 172.43557129 18.21118164 171.91137695 C17.4608667 171.36312256 16.71055176 170.81486816 15.9375 170.25 C15.15689209 169.6830542 14.37628418 169.1161084 13.57202148 168.53198242 C6.72673265 163.55204331 -0.08883156 158.53130162 -6.89282227 153.49511719 C-7.64877686 152.93598633 -8.40473145 152.37685547 -9.18359375 151.80078125 C-9.84931396 151.30747314 -10.51503418 150.81416504 -11.20092773 150.3059082 C-12.77294785 149.16481231 -14.38373356 148.07751096 -16 147 C-15.62713867 148.0830542 -15.25427734 149.1661084 -14.87011719 150.28198242 C-13.46646715 154.36100818 -12.06560995 158.44098876 -10.66552734 162.52124023 C-10.0630801 164.27572726 -9.45990964 166.02996615 -8.85595703 167.78393555 C-6.01378109 176.03944328 -3.17789566 184.29769489 -0.515625 192.61328125 C-0.03270996 194.12015503 -0.03270996 194.12015503 0.45996094 195.6574707 C1 198 1 198 0 200 C-0.71542969 198.98164063 -1.43085938 197.96328125 -2.16796875 196.9140625 C-7.69523848 189.05828739 -13.25300694 181.22583329 -18.875 173.4375 C-19.39731201 172.71320801 -19.91962402 171.98891602 -20.45776367 171.24267578 C-20.96412354 170.54255371 -21.4704834 169.84243164 -21.9921875 169.12109375 C-22.42901855 168.5170874 -22.86584961 167.91308105 -23.31591797 167.29077148 C-25.85165851 163.84153206 -28.43138096 160.42482539 -31 157 C-31.33 174.82 -31.66 192.64 -32 211 C-34.91208695 208.08791305 -35.46753083 204.49507168 -36.5625 200.625 C-38.41582309 194.23647924 -40.33809351 187.87705793 -42.39453125 181.55078125 C-42.59939651 180.91996643 -42.80426178 180.28915161 -43.01533508 179.63922119 C-44.03880192 176.49331841 -45.06866523 173.34961654 -46.10375977 170.20751953 C-46.47944092 169.05493652 -46.85512207 167.90235352 -47.2421875 166.71484375 C-47.5810498 165.68480225 -47.91991211 164.65476074 -48.26904297 163.59350586 C-49 161 -49 161 -49 158 C-49.66 158 -50.32 158 -51 158 C-51.11174561 158.54382324 -51.22349121 159.08764648 -51.33862305 159.64794922 C-52.53169834 165.25402349 -54.04862031 170.67409415 -55.8125 176.125 C-56.07458252 176.94540771 -56.33666504 177.76581543 -56.60668945 178.61108398 C-58.64915093 184.98057453 -60.76674763 191.32400425 -62.8984375 197.6640625 C-64.35761506 202.08299029 -65.70635658 206.53009389 -67 211 C-67.33 211 -67.66 211 -68 211 C-70.29113287 188.77013642 -66.71665976 174.74363171 -54.87548828 155.98974609 C-52.43519827 152.09964046 -50.24529976 148.10022747 -48.0625 144.0625 C-47.27829917 142.65498985 -46.4917515 141.24878524 -45.703125 139.84375 C-42.55775159 134.21976437 -39.45136275 128.57429314 -36.34176636 122.93048096 C-28.26249604 108.26768451 -20.14006937 93.62912031 -12 79 C-13.485 79.46019531 -13.485 79.46019531 -15 79.9296875 C-18.951112 81.05658916 -22.92508329 81.64881242 -27 82.125 C-27.67289062 82.21136719 -28.34578125 82.29773438 -29.0390625 82.38671875 C-33.4013158 82.91726307 -37.61771579 83.07988539 -42 83 C-41.42684581 78.10326967 -40.384988 73.77126336 -38.75 69.125 C-37.31627882 65.04980894 -35.96271444 61.01001462 -34.9453125 56.80859375 C-32.35486294 46.31969402 -28.08083204 38.69188316 -21.58398438 30.10498047 C-19.3207296 27.09730743 -17.13448382 24.03593874 -14.94018555 20.9777832 C-13.2916263 18.68294492 -11.63350153 16.39533177 -9.97265625 14.109375 C-6.5907269 9.44597385 -3.27471274 4.73940243 0 0 Z " fill="#FDFCFA" transform="translate(350,140)"/>
<path d="M0 0 C-0.95227575 5.91263751 -2.42254494 11.56197363 -4.234375 17.26953125 C-4.45290634 17.96093704 -4.67143768 18.65234283 -4.89659119 19.36470032 C-5.36033271 20.83169152 -5.82511184 22.29835507 -6.29086304 23.76470947 C-7.2203936 26.69470885 -8.14146214 29.62733575 -9.06245422 32.56002808 C-9.75898365 34.77788598 -10.45647949 36.99543765 -11.15429688 39.21289062 C-11.5022229 40.3185437 -11.5022229 40.3185437 -11.85717773 41.4465332 C-12.32909208 42.94591076 -12.80109794 44.44525952 -13.27319336 45.94458008 C-17.67388741 59.92227509 -21.97319194 73.90617179 -26 88 C-16.1 86.68 -6.2 85.36 4 84 C2.73127535 87.17181164 1.53911583 90.02765677 -0.03125 93.01171875 C-0.42393066 93.75921387 -0.81661133 94.50670898 -1.22119141 95.27685547 C-1.64319824 96.07236816 -2.06520508 96.86788086 -2.5 97.6875 C-2.94649902 98.53199707 -3.39299805 99.37649414 -3.85302734 100.24658203 C-7.52449383 107.16236021 -11.30388494 114.01376683 -15.125 120.84765625 C-18.6507763 127.15501822 -22.13666224 133.48438896 -25.625 139.8125 C-27.00906699 142.32294291 -28.3931993 144.8333498 -29.77734375 147.34375 C-30.12554672 147.97534531 -30.47374969 148.60694061 -30.83250427 149.25767517 C-33.26160146 153.6630488 -35.69447052 158.06632469 -38.12890625 162.46875 C-39.14648758 164.30964353 -40.16393921 166.15060863 -41.18127441 167.99163818 C-41.84952218 169.20089669 -42.51789685 170.41008507 -43.18640137 171.61920166 C-46.76364607 178.09137861 -50.3189342 184.57444425 -53.82421875 191.0859375 C-54.42403564 192.1999292 -55.02385254 193.3139209 -55.6418457 194.46166992 C-56.77007155 196.56157809 -57.89507942 198.66321942 -59.01635742 200.7668457 C-59.51369385 201.69327881 -60.01103027 202.61971191 -60.5234375 203.57421875 C-61.1719165 204.78984497 -61.1719165 204.78984497 -61.83349609 206.0300293 C-63 208 -63 208 -65 210 C-64.38972413 202.20190815 -63.09851939 194.61425349 -61.625 186.9375 C-61.1687545 184.51832649 -60.71302353 182.09905588 -60.2578125 179.6796875 C-60.03899414 178.52178711 -59.82017578 177.36388672 -59.59472656 176.17089844 C-58.86977216 172.30566535 -58.17809753 168.43622955 -57.5 164.5625 C-57.27570313 163.28117188 -57.05140625 161.99984375 -56.8203125 160.6796875 C-56.69688477 159.97424805 -56.57345703 159.26880859 -56.44628906 158.54199219 C-55.43041982 152.75576105 -54.40302095 146.97158226 -53.375 141.1875 C-53.15650391 139.95136963 -52.93800781 138.71523926 -52.71289062 137.44165039 C-52.50599609 136.27883545 -52.29910156 135.11602051 -52.0859375 133.91796875 C-51.9007959 132.87406982 -51.7156543 131.8301709 -51.52490234 130.75463867 C-51.09042468 128.4745403 -50.59450003 126.24264221 -50 124 C-50.59538574 124.24234375 -51.19077148 124.4846875 -51.80419922 124.734375 C-54.49302765 125.82649824 -57.18397174 126.91330919 -59.875 128 C-60.81214844 128.3815625 -61.74929688 128.763125 -62.71484375 129.15625 C-63.61074219 129.5171875 -64.50664062 129.878125 -65.4296875 130.25 C-66.25710449 130.58515625 -67.08452148 130.9203125 -67.93701172 131.265625 C-70 132 -70 132 -72 132 C-71.22915058 122.2292333 -69.48954248 112.64670158 -67.8125 103 C-67.4996437 101.18745202 -67.18698332 99.3748702 -66.87451172 97.56225586 C-66.07719527 92.94405618 -65.27489711 88.32673663 -64.47113037 83.70965576 C-64.01260303 81.072485 -63.55599231 78.43499032 -63.10009766 75.79736328 C-62.40841225 71.79651628 -61.71324578 67.79629268 -61.01473999 63.79663086 C-60.75570773 62.31176408 -60.49758433 60.82673844 -60.24038696 59.34155273 C-59.88473461 57.2909425 -59.52501155 55.24108982 -59.1640625 53.19140625 C-58.86169678 51.46192749 -58.86169678 51.46192749 -58.55322266 49.69750977 C-58 47 -58 47 -57 45 C-56.6640019 43.12707092 -56.37008371 41.24650756 -56.09765625 39.36328125 C-55.92943359 38.22826172 -55.76121094 37.09324219 -55.58789062 35.92382812 C-55.24049373 33.53595876 -54.89412216 31.14793998 -54.54882812 28.75976562 C-54.37931641 27.61830078 -54.20980469 26.47683594 -54.03515625 25.30078125 C-53.8844165 24.26091064 -53.73367676 23.22104004 -53.57836914 22.1496582 C-52.93886299 18.66706266 -52.02042678 15.38890367 -51 12 C-44.22023447 10.28607142 -37.43910208 8.57763604 -30.65698242 6.87304688 C-28.34904504 6.29228661 -26.04142574 5.71026076 -23.73413086 5.12695312 C-20.42123527 4.28965134 -17.10722944 3.45687958 -13.79296875 2.625 C-12.24128242 2.23127197 -12.24128242 2.23127197 -10.6582489 1.82958984 C-9.6974794 1.58934082 -8.7367099 1.3490918 -7.74682617 1.1015625 C-6.90077316 0.88838379 -6.05472015 0.67520508 -5.18302917 0.45556641 C-3 0 -3 0 0 0 Z " fill="#3E3741" transform="translate(334,135)"/>
<path d="M0 0 C4.46095068 4.09271182 7.65315061 8.99231759 11.05517578 13.95703125 C13.74816428 17.86697266 16.48588681 21.64983044 19.5234375 25.30078125 C20.08482422 26.00565674 20.64621094 26.71053223 21.22460938 27.43676758 C22.28521586 28.76268258 23.38101019 30.06159009 24.51757812 31.32299805 C28.09097714 35.91694562 28.29120709 39.8915907 27.59375 45.5234375 C27.13110762 48.69567145 26.57275077 51.84600542 26 55 C25.67817835 56.86419401 25.35674245 58.72845464 25.03564453 60.59277344 C23.95003413 66.77996538 22.79032075 72.95241195 21.625 79.125 C20.84414938 83.2938603 20.06637813 87.4632918 19.2890625 91.6328125 C19.09926819 92.64796936 18.90947388 93.66312622 18.71392822 94.70904541 C16.71252457 105.4558381 14.84409608 116.22524564 13 127 C13.91721077 126.60603027 13.91721077 126.60603027 14.85295105 126.20410156 C16.53807093 125.48029168 18.22326992 124.75666597 19.90853882 124.03320312 C21.68535124 123.26954348 23.46083856 122.50279904 25.2355957 121.734375 C26.38161255 121.24710938 26.38161255 121.24710938 27.55078125 120.75 C28.72120972 120.24726563 28.72120972 120.24726563 29.9152832 119.734375 C32 119 32 119 35 119 C34.08431592 126.62255184 32.87724578 134.17974148 31.58081055 141.74536133 C31.31845688 143.29098436 31.06162391 144.83755455 30.81030273 146.38500977 C30.44264328 148.64581599 30.05716682 150.9029703 29.66796875 153.16015625 C29.56050827 153.84263931 29.45304779 154.52512238 29.34233093 155.22828674 C28.13839799 161.98502566 24.94488546 166.94973084 20.86328125 172.3828125 C20.28980957 173.15197998 19.71633789 173.92114746 19.12548828 174.71362305 C18.52720215 175.50937744 17.92891602 176.30513184 17.3125 177.125 C11.71039033 184.64500839 6.26575078 192.24067941 1 200 C-0.37894081 197.24211838 0.39648494 196.17341762 1.35522461 193.27490234 C1.83583595 191.80360367 1.83583595 191.80360367 2.32615662 190.30258179 C2.68129837 189.24108917 3.03644012 188.17959656 3.40234375 187.0859375 C3.93717125 185.45877304 3.93717125 185.45877304 4.48280334 183.79873657 C5.62740514 180.32181568 6.78232846 176.84842182 7.9375 173.375 C8.71357094 171.02366193 9.48897048 168.67210215 10.26367188 166.3203125 C12.16798734 160.54427623 14.08079636 154.77110529 16 149 C12.35034656 150.76033485 9.14627133 152.93721769 5.875 155.3125 C5.27824463 155.74256348 4.68148926 156.17262695 4.06665039 156.61572266 C2.75692989 157.56013787 1.44813499 158.50583768 0.14013672 159.45263672 C-2.15192083 161.10984191 -4.44867999 162.76038552 -6.74609375 164.41015625 C-8.35168532 165.56493342 -9.95715562 166.71987922 -11.5625 167.875 C-12.70452881 168.695448 -12.70452881 168.695448 -13.86962891 169.5324707 C-17.65865943 172.26581112 -21.38514296 175.03653304 -25 178 C-25.66 177.67 -26.32 177.34 -27 177 C-20.79437288 168.23490917 -14.48950835 159.54933321 -8.08740234 150.92651367 C-5.09899856 146.89126351 -2.16213409 142.82749616 0.7121582 138.70996094 C1.33121536 137.82371033 1.95027252 136.93745972 2.58808899 136.02435303 C3.05401962 135.35631653 3.51995026 134.68828003 4 134 C3.4097554 134.19822861 2.8195108 134.39645721 2.21138 134.60069275 C-3.93558251 136.6644365 -10.08395237 138.7239446 -16.2331543 140.78100586 C-18.52746313 141.54912664 -20.82141169 142.31832439 -23.11499023 143.08862305 C-26.41295615 144.19603702 -29.71220092 145.2995636 -33.01171875 146.40234375 C-34.03585373 146.74716293 -35.05998871 147.09198212 -36.11515808 147.44725037 C-37.07577652 147.76750687 -38.03639496 148.08776337 -39.02612305 148.41772461 C-39.86773483 148.69974228 -40.70934662 148.98175995 -41.57646179 149.27232361 C-44.03474028 150.0104309 -46.47660209 150.53764586 -49 151 C-45.26221329 146.80638565 -40.70119841 143.96503919 -36.0625 140.875 C-29.13785692 136.20581209 -22.41464415 131.39209754 -15.859375 126.21875 C-12.64135774 123.72170928 -9.31448811 121.36749151 -6 119 C-23.82 118.67 -41.64 118.34 -60 118 C-57.00678177 116.00452118 -54.62662882 115.12131183 -51.21484375 114.046875 C-49.47062134 113.49277954 -49.47062134 113.49277954 -47.69116211 112.92749023 C-46.45245361 112.53891846 -45.21374512 112.15034668 -43.9375 111.75 C-41.3955399 110.94491838 -38.85384143 110.13905865 -36.3125 109.33203125 C-35.06726563 108.93709473 -33.82203125 108.5421582 -32.5390625 108.13525391 C-27.08390376 106.3853582 -21.656554 104.55386864 -16.24389648 102.67675781 C-13.35658087 101.69303107 -11.0754626 101 -8 101 C-8 100.34 -8 99.68 -8 99 C-9.27286865 98.73719238 -10.5457373 98.47438477 -11.85717773 98.20361328 C-17.11301609 97.03336977 -22.17679063 95.43280689 -27.28515625 93.7421875 C-28.69769936 93.2803154 -28.69769936 93.2803154 -30.13877869 92.80911255 C-33.11467429 91.83505379 -36.08859958 90.85513124 -39.0625 89.875 C-41.09297106 89.20924523 -43.12356887 88.54387686 -45.15429688 87.87890625 C-50.10433825 86.25706747 -55.05278014 84.63042386 -60 83 C-60 82.67 -60 82.34 -60 82 C-33.27 81.505 -33.27 81.505 -6 81 C-18.33704732 71.69477815 -18.33704732 71.69477815 -30.875 62.6875 C-31.5755249 62.19604492 -32.2760498 61.70458984 -32.99780273 61.19824219 C-34.9968901 59.79645859 -36.99824048 58.39796369 -39 57 C-40.09784012 56.23073109 -41.19551266 55.46122293 -42.29296875 54.69140625 C-44.52707082 53.12532906 -46.76254032 51.56127408 -49 50 C-45.70377268 48.90125756 -45.16133474 49.03651112 -42.03857422 50.12402344 C-40.8512117 50.53004791 -40.8512117 50.53004791 -39.63986206 50.9442749 C-38.78675446 51.24625793 -37.93364685 51.54824097 -37.0546875 51.859375 C-35.72801559 52.31694183 -35.72801559 52.31694183 -34.37454224 52.78375244 C-31.53834437 53.76403781 -28.70667999 54.75674858 -25.875 55.75 C-23.98987464 56.40448549 -22.10446092 57.05814105 -20.21875 57.7109375 C-16.7232502 58.92153975 -13.22982065 60.1378224 -9.73779297 61.35839844 C-5.1727866 62.94898559 -0.5902941 64.484115 4 66 C-3.35328084 55.7749812 -10.74983806 45.58449307 -18.24072266 35.4597168 C-21.53634575 31.00226821 -24.79094168 26.52022207 -28 22 C-23.99245481 22 -22.16373191 23.96315707 -19.1875 26.375 C-18.01462814 27.30151748 -16.84009418 28.2259341 -15.6640625 29.1484375 C-14.75575684 29.8614502 -14.75575684 29.8614502 -13.82910156 30.58886719 C-10.96056318 32.80191468 -8.01861004 34.90607134 -5.0625 37 C-4.20700562 37.60666504 -4.20700562 37.60666504 -3.33422852 38.22558594 C-2.1658134 39.05304297 -0.99694493 39.87986019 0.17236328 40.70605469 C3.41441003 43.00138567 6.64384308 45.31437827 9.875 47.625 C11.05984327 48.47142776 12.24473403 49.31778903 13.4296875 50.1640625 C14.70199219 51.07285156 14.70199219 51.07285156 16 52 C13.50239613 42.02894578 10.17178718 32.35178792 6.875 22.625 C5.78555472 19.41002475 4.70017637 16.19371755 3.6171875 12.9765625 C3.3692746 12.24942047 3.12136169 11.52227844 2.86593628 10.77310181 C1.6655613 7.20638269 0.62430564 3.71412018 0 0 Z " fill="#FEFCFA" transform="translate(249,140)"/>
<path d="M0 0 C23.11413845 20.04570526 38.82678808 47.98235462 41.49316406 78.84423828 C43.09836465 110.75368035 35.37529326 140.57147644 14.62207031 165.40673828 C13.790625 166.40189453 12.95917969 167.39705078 12.10253906 168.42236328 C-6.01880841 189.42550604 -33.46340776 205.18107938 -61.37792969 207.40673828 C-99.03214032 208.77152563 -130.949041 200.83674949 -159.04199219 174.78759766 C-168.78912764 165.36710883 -176.15983902 154.39193721 -182.37792969 142.40673828 C-182.93351563 141.34841797 -183.48910156 140.29009766 -184.06152344 139.19970703 C-188.19423098 130.8415379 -190.45208982 122.47114804 -192.37792969 113.40673828 C-192.71824219 111.93140625 -192.71824219 111.93140625 -193.06542969 110.42626953 C-199.14908275 80.47272773 -190.67400295 49.47492617 -174.56542969 24.15673828 C-170.08848 17.67926187 -164.82679986 12.06200505 -159.37792969 6.40673828 C-158.79527344 5.76091797 -158.21261719 5.11509766 -157.61230469 4.44970703 C-144.21005964 -10.00170366 -124.9655436 -19.03725494 -106.37792969 -24.59326172 C-105.24742187 -24.93486328 -104.11691406 -25.27646484 -102.95214844 -25.62841797 C-66.99312977 -34.545591 -27.94603925 -23.4641273 0 0 Z M-166.37792969 16.40673828 C-187.13503779 40.68426316 -194.33291356 72.0912692 -192.09667969 103.33642578 C-189.19925832 129.69181626 -177.44182854 152.28392122 -159.37792969 171.40673828 C-158.69214844 172.15697266 -158.00636719 172.90720703 -157.29980469 173.68017578 C-141.97804956 189.85313952 -121.78601192 199.22349965 -100.37792969 204.40673828 C-99.36859375 204.65166016 -98.35925781 204.89658203 -97.31933594 205.14892578 C-68.81384653 210.92118855 -37.47421869 203.6361857 -13.12011719 188.36376953 C-10.45632337 186.46268591 -7.91113171 184.47790974 -5.37792969 182.40673828 C-4.43433594 181.67455078 -3.49074219 180.94236328 -2.51855469 180.18798828 C3.17670403 175.69335167 8.12739372 171.09594604 12.62207031 165.40673828 C13.31816406 164.55853516 14.01425781 163.71033203 14.73144531 162.83642578 C27.51907543 146.65345939 34.61074093 128.54469593 38.62207031 108.40673828 C38.80769531 107.50697266 38.99332031 106.60720703 39.18457031 105.68017578 C41.07778153 91.51489902 39.71113745 77.27128375 36.62207031 63.40673828 C36.4403125 62.40126953 36.25855469 61.39580078 36.07128906 60.35986328 C30.76831467 34.24181251 11.17711931 9.30175907 -10.32324219 -5.64013672 C-23.55574774 -14.02830977 -37.18490624 -19.81063654 -52.37792969 -23.59326172 C-53.35761719 -23.84076172 -54.33730469 -24.08826172 -55.34667969 -24.34326172 C-97.23284279 -33.00936443 -138.81510601 -14.49830928 -166.37792969 16.40673828 Z " fill="#40342E" transform="translate(376.3779296875,149.59326171875)"/>
<path d="M0 0 C1.67578125 1.515625 1.67578125 1.515625 3 3 C2.41734375 3.09498779 1.8346875 3.18997559 1.234375 3.2878418 C-11.16994488 5.34181969 -23.16958226 7.67193304 -35 12 C-35.78084961 12.28359375 -36.56169922 12.5671875 -37.36621094 12.859375 C-59.83381613 21.14106938 -80.14804188 32.98212021 -97.484375 49.625 C-100 52 -100 52 -102.390625 53.8125 C-125.71320446 73.36436302 -141.72379418 105.89517673 -149 135 C-132.5 135 -116 135 -99 135 C-99 135.33 -99 135.66 -99 136 C-106.22649432 136.07587458 -113.45288649 136.12852551 -120.6796875 136.16479492 C-123.13968748 136.17990988 -125.59966041 136.20040227 -128.05957031 136.22631836 C-131.58926052 136.2625823 -135.11859544 136.27969914 -138.6484375 136.29296875 C-139.75367767 136.30845261 -140.85891785 136.32393646 -141.99765015 136.33988953 C-143.01855743 136.34011612 -144.03946472 136.34034271 -145.09130859 136.34057617 C-145.99287689 136.34723801 -146.89444519 136.35389984 -147.82333374 136.36076355 C-148.54163361 136.24171158 -149.25993347 136.12265961 -150 136 C-152 133 -152 133 -151.78515625 129.7734375 C-150.98007436 125.90423799 -149.85959824 122.29983534 -148.4375 118.625 C-148.17356445 117.93728516 -147.90962891 117.24957031 -147.63769531 116.54101562 C-137.79627758 91.39704662 -123.53959808 70.50611741 -105 51 C-104.42121094 50.36835937 -103.84242188 49.73671875 -103.24609375 49.0859375 C-80.56407108 25.09642982 -34.05135913 -3.02678748 0 0 Z " fill="#DFAA67" transform="translate(276,59)"/>
<path d="M0 0 C-0.43917397 7.58359335 -2.5060813 13.61487365 -5.5 20.5625 C-5.94923828 21.61808105 -6.39847656 22.67366211 -6.86132812 23.76123047 C-25.93551095 67.76464591 -62.01058583 102.88069642 -106.35498047 121.16943359 C-115.22491747 124.66609055 -124.23004012 127.28563175 -133.5 129.5 C-134.54921631 129.75547607 -135.59843262 130.01095215 -136.67944336 130.27416992 C-144.19382896 131.95684816 -151.3142445 132.28095776 -159 132 C-156.80092563 129.45994076 -155.40454173 128.60192521 -152.078125 128.19140625 C-151.30774902 128.08658936 -150.53737305 127.98177246 -149.74365234 127.8737793 C-148.92074707 127.77105713 -148.0978418 127.66833496 -147.25 127.5625 C-106.67174475 121.78368402 -66.20367299 100.97472002 -40 69 C-39.56429687 68.48195801 -39.12859375 67.96391602 -38.6796875 67.43017578 C-31.13868854 58.45507642 -24.61123088 49.2960544 -19 39 C-18.65485352 38.37013184 -18.30970703 37.74026367 -17.95410156 37.09130859 C-11.70758095 25.53964443 -7.14709973 13.44129919 -3 1 C-1 0 -1 0 0 0 Z " fill="#DFAA68" transform="translate(475,289)"/>
<path d="M0 0 C0.66 0.99 1.32 1.98 2 3 C1.0234375 5.71484375 1.0234375 5.71484375 -0.625 8.9375 C-13.63734599 35.88105925 -14.60517313 67.49574907 -4.84960938 95.72167969 C1.26164236 112.10966854 10.02033237 125.29687109 22 138 C22.61230469 138.67675781 23.22460938 139.35351562 23.85546875 140.05078125 C38.75212478 155.90031507 59.16382351 164.95522889 80 170 C81.00933594 170.24492187 82.01867187 170.48984375 83.05859375 170.7421875 C111.63714645 176.52924533 142.89941286 169.17548399 167.328125 153.921875 C172.636295 150.15574322 177.48384395 145.92477603 182.22265625 141.46875 C184 140 184 140 186 140 C186.37125 139.0409375 186.37125 139.0409375 186.75 138.0625 C188 136 188 136 190.078125 135.37109375 C191.02945313 135.18740234 191.02945313 135.18740234 192 135 C177.72858139 153.34896678 156.12833206 165.01936971 134 171 C132.80375 171.37125 131.6075 171.7425 130.375 172.125 C102.08261517 179.46006273 70.0104407 173.19899139 44.890625 159.11376953 C24.35382179 147.0155133 8.93461402 130.07616813 -2 109 C-2.55558594 107.94167969 -3.11117187 106.88335937 -3.68359375 105.79296875 C-7.8163013 97.43479962 -10.07416013 89.06440976 -12 80 C-12.3403125 78.52466797 -12.3403125 78.52466797 -12.6875 77.01953125 C-18.0542419 50.59578118 -11.64401766 23.72818719 0 0 Z " fill="#453830" transform="translate(196,183)"/>
<path d="M0 0 C1.875 1.125 1.875 1.125 3 3 C4.20879783 9.95058754 1.22140686 16.91512038 -2 23 C-4.56942567 25.41382381 -6.09491626 26.82339829 -9.5625 27.5 C-12.9249123 26.8102744 -14.0486167 25.81866476 -16 23 C-16.47310152 17.542674 -15.4295486 13.73490818 -13.25 8.75 C-12.73953125 7.54859375 -12.2290625 6.3471875 -11.703125 5.109375 C-8.66195548 -0.44285191 -6.14172644 -1.82945043 0 0 Z " fill="#EEEEEE" transform="translate(249,371)"/>
<path d="M0 0 C1.65 0.33 3.3 0.66 5 1 C5.66 5.62 6.32 10.24 7 15 C8.98 11.04 10.96 7.08 13 3 C14.32 3 15.64 3 17 3 C16.27643663 12.11689851 14.65707093 21.01638277 13 30 C11.68 30 10.36 30 9 30 C9.33 26.37 9.66 22.74 10 19 C9.01 20.98 8.02 22.96 7 25 C5.68 25 4.36 25 3 25 C2.67 22.69 2.34 20.38 2 18 C1.34 21.3 0.68 24.6 0 28 C-1.32 28 -2.64 28 -4 28 C-3.47703913 18.47850555 -1.8815863 9.32509434 0 0 Z " fill="#F3F3F3" transform="translate(265,377)"/>
<path d="M0 0 C0.66 0.33 1.32 0.66 2 1 C1.18917969 2.00675781 0.37835938 3.01351562 -0.45703125 4.05078125 C-16.51895837 24.3173119 -28.70203013 46.80812051 -35 72 C-18.5 72 -2 72 15 72 C15 72.33 15 72.66 15 73 C7.77350568 73.07587458 0.54711351 73.12852551 -6.6796875 73.16479492 C-9.13968748 73.17990988 -11.59966041 73.20040227 -14.05957031 73.22631836 C-17.58926052 73.2625823 -21.11859544 73.27969914 -24.6484375 73.29296875 C-25.75367767 73.30845261 -26.85891785 73.32393646 -27.99765015 73.33988953 C-29.01855743 73.34011612 -30.03946472 73.34034271 -31.09130859 73.34057617 C-31.99287689 73.34723801 -32.89444519 73.35389984 -33.82333374 73.36076355 C-34.54163361 73.24171158 -35.25993347 73.12265961 -36 73 C-38 70 -38 70 -37.78515625 66.7734375 C-36.98007436 62.90423799 -35.85959824 59.29983534 -34.4375 55.625 C-34.17356445 54.93728516 -33.90962891 54.24957031 -33.63769531 53.54101562 C-26.25522746 34.67945037 -16.55758212 12.51914746 0 0 Z " fill="#E1AC68" transform="translate(162,122)"/>
<path d="M0 0 C3.86070915 1.93035458 4.71708951 7.3853609 6.1875 11.25 C6.56841797 12.20519531 6.94933594 13.16039062 7.34179688 14.14453125 C7.69693359 15.07136719 8.05207031 15.99820312 8.41796875 16.953125 C8.74563232 17.80036133 9.0732959 18.64759766 9.41088867 19.52050781 C10.08563918 22.36044404 9.76490882 24.20978226 9 27 C5.93617261 26.67567593 5.01029035 26.01098513 2.859375 23.71484375 C2.16328125 22.79832031 1.4671875 21.88179688 0.75 20.9375 C0.04359375 20.01839844 -0.6628125 19.09929687 -1.390625 18.15234375 C-1.92171875 17.44207031 -2.4528125 16.73179687 -3 16 C-2.69964844 16.74765625 -2.39929688 17.4953125 -2.08984375 18.265625 C-1.51943359 19.74289062 -1.51943359 19.74289062 -0.9375 21.25 C-0.55464844 22.22453125 -0.17179687 23.1990625 0.22265625 24.203125 C1.01113787 27.04007395 1.02437812 28.29409552 0 31 C-0.99 31 -1.98 31 -3 31 C-4.53592773 27.06822095 -6.05111744 23.1287725 -7.5625 19.1875 C-8.00013672 18.06794922 -8.43777344 16.94839844 -8.88867188 15.79492188 C-9.29794922 14.72177734 -9.70722656 13.64863281 -10.12890625 12.54296875 C-10.70233765 11.0583313 -10.70233765 11.0583313 -11.28735352 9.54370117 C-12 7 -12 7 -11 4 C-6.91944849 4.50547372 -5.33727705 6.50088882 -2.75 9.5625 C-1.69039063 10.80193359 -1.69039063 10.80193359 -0.609375 12.06640625 C-0.07828125 12.70449219 0.4528125 13.34257812 1 14 C0.7834375 13.39671875 0.566875 12.7934375 0.34375 12.171875 C0.0653125 11.37265625 -0.213125 10.5734375 -0.5 9.75 C-0.7784375 8.96109375 -1.056875 8.1721875 -1.34375 7.359375 C-2 5 -2 5 -2 1 C-1.34 0.67 -0.68 0.34 0 0 Z " fill="#F1F1F1" transform="translate(357,369)"/>
<path d="M0 0 C1.98 0 3.96 0 6 0 C7.5114798 3.57859815 9.00715751 7.16359161 10.5 10.75 C10.92925781 11.76578125 11.35851562 12.7815625 11.80078125 13.828125 C12.20683594 14.8078125 12.61289062 15.7875 13.03125 16.796875 C13.40830078 17.69760742 13.78535156 18.59833984 14.17382812 19.52636719 C15 22 15 22 15 26 C13.68 26 12.36 26 11 26 C10.67 25.01 10.34 24.02 10 23 C8.02 22.67 6.04 22.34 4 22 C4 23.98 4 25.96 4 28 C2.68 28 1.36 28 0 28 C0 18.76 0 9.52 0 0 Z " fill="#F3F3F3" transform="translate(323,379)"/>
<path d="M0 0 C9 0 9 0 11.53515625 1.1875 C13.45822806 3.56698086 13.50525475 4.96458728 13.4375 8 C13.43621094 8.86625 13.43492187 9.7325 13.43359375 10.625 C13 13 13 13 11.84765625 14.8125 C10 16 10 16 4 16 C4 19.96 4 23.92 4 28 C2.68 28 1.36 28 0 28 C0 18.76 0 9.52 0 0 Z " fill="#F0F0F0" transform="translate(294,381)"/>
<path d="M0 0 C0.66 0 1.32 0 2 0 C3.00132442 2.96022607 3.99385159 5.92286139 4.97265625 8.890625 C5.54905128 10.63515139 6.13343513 12.37725116 6.74609375 14.109375 C8.16226006 18.3676406 8.16558787 21.67067361 7 26 C4.88128452 28.34572071 3.5974873 28.89543972 0.5 29.4375 C-2.8719071 28.84741626 -3.81683316 27.61030818 -6 25 C-7.1953125 22.046875 -7.1953125 22.046875 -8.125 18.75 C-8.45242187 17.60660156 -8.77984375 16.46320313 -9.1171875 15.28515625 C-10.12572784 11.53213666 -11.10990174 7.78291761 -12 4 C-10.68 3.67 -9.36 3.34 -8 3 C-5.66666667 10 -3.33333333 17 -1 24 C0.32 23.67 1.64 23.34 3 23 C2.3900874 18.01155691 1.36525565 13.39844654 -0.0625 8.5625 C-0.42472656 7.32628906 -0.78695313 6.09007813 -1.16015625 4.81640625 C-1.43730469 3.88699219 -1.71445313 2.95757812 -2 2 C-1.34 1.34 -0.68 0.68 0 0 Z " fill="#EBEAEB" transform="translate(257,75)"/>
<path d="M0 0 C2.3125 1.8125 2.3125 1.8125 4 4 C4 4.99 4 5.98 4 7 C2.68 7 1.36 7 0 7 C-0.33 6.34 -0.66 5.68 -1 5 C-2.32 5.33 -3.64 5.66 -5 6 C-4.65305208 8.85612484 -4.23345399 9.80829836 -1.96875 11.66796875 C-0.74671875 12.42013672 -0.74671875 12.42013672 0.5 13.1875 C1.3146875 13.69667969 2.129375 14.20585938 2.96875 14.73046875 C3.6390625 15.14941406 4.309375 15.56835938 5 16 C6 17 6 17 6.3125 20.3125 C6 24 6 24 4.4375 26.5 C2 28 2 28 -1.5625 27.9375 C-6.26382979 26.65531915 -6.26382979 26.65531915 -8 24 C-8 23.01 -8 22.02 -8 21 C-4.97580475 21.58803797 -1.98241547 22.22678118 1 23 C1.33 21.35 1.66 19.7 2 18 C0.9790625 17.690625 0.9790625 17.690625 -0.0625 17.375 C-3.98613784 15.53840356 -7.31982626 13.4582887 -10 10 C-10.1875 6.3125 -10.1875 6.3125 -9 3 C-6.29775749 0.00823151 -3.96034806 -0.69306091 0 0 Z " fill="#EAE9EA" transform="translate(281,71)"/>
<path d="M0 0 C3.5 0.875 3.5 0.875 5.4375 2.625 C6.66717908 5.22902628 6.73723981 7.02812226 6.5 9.875 C5.18 9.875 3.86 9.875 2.5 9.875 C1.84 8.225 1.18 6.575 0.5 4.875 C-1.38419954 4.97744767 -1.38419954 4.97744767 -3.5 5.875 C-5.51927162 8.25545049 -5.51927162 8.25545049 -7.25 11.1875 C-7.86359375 12.15300781 -8.4771875 13.11851562 -9.109375 14.11328125 C-10.79982562 16.95509436 -10.79982562 16.95509436 -10.5 20.875 C-9.55125 20.854375 -8.6025 20.83375 -7.625 20.8125 C-4.5 20.875 -4.5 20.875 -2.5 21.875 C-3.16 23.195 -3.82 24.515 -4.5 25.875 C-10.77586207 26.35775862 -10.77586207 26.35775862 -13.9375 24.25 C-16.00029237 21.11455561 -15.91399221 19.60092992 -15.5 15.875 C-14.32037275 13.27572387 -12.79509176 10.97781647 -11.1875 8.625 C-10.58131836 7.68914062 -10.58131836 7.68914062 -9.96289062 6.734375 C-5.37275133 -0.19188398 -5.37275133 -0.19188398 0 0 Z " fill="#EDECED" transform="translate(221.5,358.125)"/>
<path d="M0 0 C3.96 0 7.92 0 12 0 C12 1.32 12 2.64 12 4 C9.36 4 6.72 4 4 4 C4 6.64 4 9.28 4 12 C5.65 12 7.3 12 9 12 C9 13.32 9 14.64 9 16 C7.35 16 5.7 16 4 16 C4 18.31 4 20.62 4 23 C6.64 23 9.28 23 12 23 C12 24.32 12 25.64 12 27 C8.04 27 4.08 27 0 27 C0 18.09 0 9.18 0 0 Z " fill="#EFEEEF" transform="translate(296,70)"/>
<path d="M0 0 C5.445 1.485 5.445 1.485 11 3 C11 4.32 11 5.64 11 7 C5.25 6.125 5.25 6.125 3 5 C2.34 7.64 1.68 10.28 1 13 C2.32 13.33 3.64 13.66 5 14 C5 14.99 5 15.98 5 17 C3.02 16.67 1.04 16.34 -1 16 C-1.33 18.64 -1.66 21.28 -2 24 C0.31 24.33 2.62 24.66 5 25 C4.67 26.32 4.34 27.64 4 29 C0.37 28.34 -3.26 27.68 -7 27 C-6.22963021 21.20759928 -4.57090632 15.71875343 -2.9375 10.125 C-2.65583984 9.15046875 -2.37417969 8.1759375 -2.08398438 7.171875 C-1.39232631 4.78037933 -0.696571 2.3900693 0 0 Z " fill="#EFEEEF" transform="translate(341,75)"/>
<path d="M0 0 C0.33 0.99 0.66 1.98 1 3 C-0.98 3.99 -2.96 4.98 -5 6 C-4.34 8.31 -3.68 10.62 -3 13 C-1.35 12.34 0.3 11.68 2 11 C2.33 12.32 2.66 13.64 3 15 C1.68 15.33 0.36 15.66 -1 16 C-0.01 17.98 0.98 19.96 2 22 C5.96 21.505 5.96 21.505 10 21 C9.78515625 22.859375 9.78515625 22.859375 9 25 C6.93359375 26.265625 6.93359375 26.265625 4.4375 27.25 C3.61121094 27.58515625 2.78492188 27.9203125 1.93359375 28.265625 C1.29550781 28.50796875 0.65742188 28.7503125 0 29 C-1.87019365 25.23690862 -3.7183456 21.46341175 -5.5625 17.6875 C-6.09552734 16.61564453 -6.62855469 15.54378906 -7.17773438 14.43945312 C-7.92700195 12.89741211 -7.92700195 12.89741211 -8.69140625 11.32421875 C-9.15748291 10.37635498 -9.62355957 9.42849121 -10.10375977 8.4519043 C-11 6 -11 6 -10 3 C-6.5065403 1.25327015 -3.93154432 0 0 0 Z " fill="#F1F1F1" transform="translate(235,84)"/>
<path d="M0 0 C3.5 0.875 3.5 0.875 5.4375 2.0625 C6.97273259 4.68142619 6.6980568 6.90414805 6.5 9.875 C5.18 9.545 3.86 9.215 2.5 8.875 C2.17 7.555 1.84 6.235 1.5 4.875 C0.18 4.875 -1.14 4.875 -2.5 4.875 C-3.53513247 6.9512657 -4.55266211 9.03631479 -5.5625 11.125 C-6.13097656 12.28515625 -6.69945312 13.4453125 -7.28515625 14.640625 C-8.46485975 17.78144333 -8.80230734 18.86853048 -7.5 21.875 C-5.52 21.545 -3.54 21.215 -1.5 20.875 C-1.5 22.195 -1.5 23.515 -1.5 24.875 C-3.5 26.875 -3.5 26.875 -5.8125 27.3125 C-9.78789213 26.66534314 -11.17003494 25.09583405 -13.5 21.875 C-13.94363935 14.62889062 -9.42370055 6.57216631 -5.0234375 1.0078125 C-3.5 -0.125 -3.5 -0.125 0 0 Z " fill="#EDEDED" transform="translate(367.5,84.125)"/>
<path d="M0 0 C0.07476562 0.96679688 0.14953125 1.93359375 0.2265625 2.9296875 C1.02733773 10.85893243 2.05034499 16.42998327 6.85546875 23.046875 C7.23316406 23.69140625 7.61085938 24.3359375 8 25 C7.67 25.99 7.34 26.98 7 28 C6.01 28 5.02 28 4 28 C2.5625 25.875 2.5625 25.875 1 23 C-2.41772923 17.30378461 -6.3087121 14.13931289 -11.83984375 10.55859375 C-12.55269531 10.04425781 -13.26554687 9.52992188 -14 9 C-14 8.34 -14 7.68 -14 7 C-12.234375 6.34765625 -12.234375 6.34765625 -10 6 C-7.38060145 7.3576151 -5.33137626 9.16179949 -3 11 C-3.33 7.7 -3.66 4.4 -4 1 C-2 0 -2 0 0 0 Z " fill="#EDECED" transform="translate(383,356)"/>
<path d="M0 0 C1.65 0 3.3 0 5 0 C4.01 7.92 3.02 15.84 2 24 C4.31 24.33 6.62 24.66 9 25 C9 26.32 9 27.64 9 29 C7.3745692 28.85904936 5.74965949 28.71207913 4.125 28.5625 C3.22007812 28.48128906 2.31515625 28.40007812 1.3828125 28.31640625 C-1 28 -1 28 -3 27 C-2.35878726 17.93865155 -1.26519458 8.99147995 0 0 Z " fill="#E2E2E2" transform="translate(318,71)"/>
<path d="M0 0 C-0.391875 1.175625 -0.78375 2.35125 -1.1875 3.5625 C-1.45691406 4.37203125 -1.72632813 5.1815625 -2.00390625 6.015625 C-2.75871408 8.27708846 -3.51685291 10.5373235 -4.27734375 12.796875 C-4.72656549 14.13541566 -5.17578424 15.47395733 -5.625 16.8125 C-5.84309326 17.45840088 -6.06118652 18.10430176 -6.28588867 18.76977539 C-7.3131062 21.83545878 -8.2148776 24.85951041 -9 28 C7.5 28 24 28 41 28 C41 28.33 41 28.66 41 29 C33.77350568 29.07587458 26.54711351 29.12852551 19.3203125 29.16479492 C16.86031252 29.17990988 14.40033959 29.20040227 11.94042969 29.22631836 C8.41073948 29.2625823 4.88140456 29.27969914 1.3515625 29.29296875 C0.24632233 29.30845261 -0.85891785 29.32393646 -1.99765015 29.33988953 C-3.01855743 29.34011612 -4.03946472 29.34034271 -5.09130859 29.34057617 C-5.99287689 29.34723801 -6.89444519 29.35389984 -7.82333374 29.36076355 C-8.54163361 29.24171158 -9.25993347 29.12265961 -10 29 C-12 26 -12 26 -11.8046875 22.828125 C-10.91925238 18.61586084 -9.65918212 14.76132495 -8.125 10.75 C-7.74021484 9.69039062 -7.74021484 9.69039062 -7.34765625 8.609375 C-4.10283499 0 -4.10283499 0 0 0 Z " fill="#CA9B60" transform="translate(136,166)"/>
<path d="M0 0 C1.32 0.66 2.64 1.32 4 2 C3.4837985 7.93631729 2.10645166 13.85216582 -1 19 C-3.01171875 19.9140625 -3.01171875 19.9140625 -5 20 C-5.66 19.34 -6.32 18.68 -7 18 C-6.73814404 11.58452901 -4.61104173 4.61104173 0 0 Z " fill="#2C282E" transform="translate(244,374)"/>
<path d="M0 0 C0 0.33 0 0.66 0 1 C-0.87398438 1.13462646 -0.87398438 1.13462646 -1.765625 1.27197266 C-14.4827688 3.27902188 -26.16883281 5.89635925 -38 11 C-39.47533203 11.63035156 -39.47533203 11.63035156 -40.98046875 12.2734375 C-42.99874812 13.15584802 -45.00208756 14.0723978 -47 15 C-47 14.01 -47 13.02 -47 12 C-38.16883745 7.70506302 -29.46240585 3.73875712 -20 1 C-19.22269531 0.7628125 -18.44539063 0.525625 -17.64453125 0.28125 C-11.62596758 -1.33790341 -6.13073776 -0.8479899 0 0 Z " fill="#41352F" transform="translate(290,124)"/>
<path d="M0 0 C4.49994472 -0.05845252 8.99979063 -0.09374855 13.5 -0.125 C14.7684375 -0.14175781 16.036875 -0.15851563 17.34375 -0.17578125 C23.92726319 -0.21007038 29.71371872 -0.01605485 36 2 C36 2.33 36 2.66 36 3 C24.12 2.67 12.24 2.34 0 2 C0 1.34 0 0.68 0 0 Z " fill="#342B2A" transform="translate(285,122)"/>
<path d="M0 0 C2.61167103 2.61167103 3.07131482 4.9721059 4.125 8.5 C4.47820312 9.6653125 4.83140625 10.830625 5.1953125 12.03125 C6 15 6 15 6 17 C4.02 17.66 2.04 18.32 0 19 C0 12.73 0 6.46 0 0 Z " fill="#FDFBF8" transform="translate(282,129)"/>
<path d="M0 0 C4.875 0.875 4.875 0.875 6 2 C6.1875 4.4375 6.1875 4.4375 6 7 C5.34 7.66 4.68 8.32 4 9 C2.68 9 1.36 9 0 9 C0 6.03 0 3.06 0 0 Z " fill="#403D42" transform="translate(298,385)"/>
<path d="M0 0 C7.94122557 3.42562672 14.2919487 8.64173951 21 14 C20.34 14.66 19.68 15.32 19 16 C18.38253906 15.49210938 17.76507813 14.98421875 17.12890625 14.4609375 C12.12404436 10.39305889 7.10233861 6.62393983 1.6171875 3.2265625 C1.08351563 2.82179687 0.54984375 2.41703125 0 2 C0 1.34 0 0.68 0 0 Z " fill="#362D2B" transform="translate(357,137)"/>
<path d="M0 0 C5.66666667 5.66666667 11.33333333 11.33333333 17 17 C16.34 17.66 15.68 18.32 15 19 C3.85017422 8.29616725 3.85017422 8.29616725 0 2 C0 1.34 0 0.68 0 0 Z " fill="#4C3D33" transform="translate(206,309)"/>
<path d="M0 0 C0.33 0.66 0.66 1.32 1 2 C-2.6183295 9.07002541 -7.57471493 15.24491036 -13 21 C-13.66 20.67 -14.32 20.34 -15 20 C-14.41992188 19.31035156 -13.83984375 18.62070312 -13.2421875 17.91015625 C-8.45180868 12.14747281 -3.99367458 6.34289492 0 0 Z " fill="#3D322D" transform="translate(401,297)"/>
<path d="M0 0 C0 0.33 0 0.66 0 1 C-6.27 1.99 -12.54 2.98 -19 4 C-19.33 3.01 -19.66 2.02 -20 1 C-12.95664616 -0.96290189 -7.22533204 -0.99939172 0 0 Z " fill="#504034" transform="translate(290,124)"/>
<path d="M0 0 C0.99 0.33 1.98 0.66 3 1 C0.03 3.97 -2.94 6.94 -6 10 C-6.99 9.67 -7.98 9.34 -9 9 C-7.71034824 7.62437146 -6.37310707 6.29233607 -5 5 C-4.34 5 -3.68 5 -3 5 C-2.690625 4.360625 -2.38125 3.72125 -2.0625 3.0625 C-1 1 -1 1 0 0 Z " fill="#544336" transform="translate(385,318)"/>
<path d="M0 0 C2.97903734 2.97903734 4 5.80285329 4 10 C2.68 10 1.36 10 0 10 C0 6.7 0 3.4 0 0 Z " fill="#373339" transform="translate(327,387)"/>
<path d="M0 0 C2.35953094 2.35953094 2.49141413 3.77895617 3 7 C2.34 7 1.68 7 1 7 C1 10.96 1 14.92 1 19 C0.67 19 0.34 19 0 19 C0 12.73 0 6.46 0 0 Z " fill="#F9E7D0" transform="translate(282,129)"/>
<path d="M0 0 C0.66 0.33 1.32 0.66 2 1 C-0.31 4.63 -2.62 8.26 -5 12 C-5.33 11.01 -5.66 10.02 -6 9 C-4.78515625 6.73828125 -4.78515625 6.73828125 -3.0625 4.3125 C-2.49660156 3.50425781 -1.93070313 2.69601563 -1.34765625 1.86328125 C-0.90292969 1.24839844 -0.45820313 0.63351563 0 0 Z " fill="#382E2C" transform="translate(203,173)"/>
<path d="M0 0 C0.33 0 0.66 0 1 0 C1 3.3 1 6.6 1 10 C0.01 10 -0.98 10 -2 10 C-1.125 2.25 -1.125 2.25 0 0 Z " fill="#FAEEDE" transform="translate(317,129)"/>
<path d="M0 0 C0.80824219 0.11085938 1.61648438 0.22171875 2.44921875 0.3359375 C3.37154297 0.47902344 3.37154297 0.47902344 4.3125 0.625 C3.9825 1.615 3.6525 2.605 3.3125 3.625 C-0.3175 2.965 -3.9475 2.305 -7.6875 1.625 C-4.33422361 -0.61051759 -3.78006343 -0.54783528 0 0 Z " fill="#4B3D33" transform="translate(325.6875,124.375)"/>
<path d="M0 0 C-1 2 -1 2 -2.77734375 2.703125 C-3.84662109 2.97382813 -3.84662109 2.97382813 -4.9375 3.25 C-6.00291016 3.53617188 -6.00291016 3.53617188 -7.08984375 3.828125 C-8.03537109 3.91320312 -8.03537109 3.91320312 -9 4 C-9.66 3.34 -10.32 2.68 -11 2 C-7.17679443 0.57741188 -4.08718695 -0.24042276 0 0 Z " fill="#382F2C" transform="translate(272,126)"/>
<path d="M0 0 C1.64826111 2.96687001 2.44271087 5.65626525 3 9 C2.01 9.495 2.01 9.495 1 10 C0.63720544 8.71073008 0.28503302 7.41846728 -0.0625 6.125 C-0.35833984 5.04605469 -0.35833984 5.04605469 -0.66015625 3.9453125 C-1 2 -1 2 0 0 Z " fill="#534235" transform="translate(188,271)"/>
<path d="M0 0 C0.66 0.99 1.32 1.98 2 3 C1.01 4.98 0.02 6.96 -1 9 C-1.66 8.67 -2.32 8.34 -3 8 C-1.125 2.25 -1.125 2.25 0 0 Z " fill="#4E3E33" transform="translate(196,183)"/>
</svg>
