<?xml version="1.0" standalone="yes"?>
<svg xmlns="http://www.w3.org/2000/svg" width="600" height="480">
<path style="fill:#433d91; stroke:none;" d="M0 0L0 480L600 480L600 0L0 0z"/>
<path style="fill:#f0f0f1; stroke:none;" d="M291.717 65.1768C288.38 67.7051 290.082 76.3383 289.973 80C289.829 84.8594 287.351 92.0231 289.717 96.5877C292.182 101.342 310.01 99.8886 313.73 97.1553C319.85 92.658 318.533 72.6284 313.479 67.6483C310.169 64.3866 305.22 65.1429 301 64.9406C298.319 64.812 294.073 63.3925 291.717 65.1768z"/>
<path style="fill:#c2c0d8; stroke:none;" d="M296 64L296 65L307 65L296 64z"/>
<path style="fill:#928fbd; stroke:none;" d="M289 67L289 86L290 86L289 67z"/>
<path style="fill:#f0f0f1; stroke:none;" d="M253 74C236.059 70.1808 234.264 82.8756 238.001 96C239.023 99.5923 239.74 106.741 243.343 108.749C247.309 110.959 247.865 105.503 247.49 102.996C246.959 99.4404 238.638 80.0765 247.004 81.1296C253.495 81.9467 254.497 95.184 256.183 99.9852C256.926 102.101 258.636 106.071 261.623 104.634C270.182 100.517 251.83 80.2606 261.196 76.5826C268.258 73.809 270.554 92.0003 272.073 95.9581C272.853 97.991 275.407 102.2 277.861 99.2409C280.181 96.444 278.126 91.0019 277.284 88C274.636 78.5631 263.039 56.5007 253 74M334 97L336 89C351.05 94.5655 353.562 84.5724 338 83L340 76C342.285 76.8524 357.819 82.1748 355.985 75.2484C354.816 70.8335 338.845 67.1774 335.517 69.7801C330.854 73.4285 325.693 94.1038 327.423 99.7128C328.716 103.908 344.828 109.18 347.809 105.287C352.084 99.7024 336.871 97.4583 334 97z"/>
<path style="fill:#b9b7d2; stroke:none;" d="M296 71L296 77L297 77L296 71z"/>
<path style="fill:#8985b7; stroke:none;" d="M297 71L297 72L307 72L297 71z"/>
<path style="fill:#8885b7; stroke:none;" d="M245 72L245 73L249 73L245 72z"/>
<path style="fill:#433d91; stroke:none;" d="M297 72L297 77C302.174 76.9992 307.709 78.0883 309 72L297 72z"/>
<path style="fill:#a4a1c6; stroke:none;" d="M316 72L316 77L317 77L316 72z"/>
<path style="fill:#8783b7; stroke:none;" d="M251.667 73.3333L252.333 73.6667L251.667 73.3333z"/>
<path style="fill:#a4a1c6; stroke:none;" d="M309.333 73.6667L309.667 74.3333L309.333 73.6667z"/>
<path style="fill:#a5a2c8; stroke:none;" d="M332.333 75.6667L332.667 76.3333L332.333 75.6667M274.333 78.6667L274.667 79.3333L274.333 78.6667z"/>
<path style="fill:#9390be; stroke:none;" d="M352.667 79.3333L353.333 79.6667L352.667 79.3333z"/>
<path style="fill:#8e8abb; stroke:none;" d="M338 80L340 83L338 80z"/>
<path style="fill:#8a86b8; stroke:none;" d="M373.667 80.3333L374.333 80.6667L373.667 80.3333z"/>
<path style="fill:#f0f0f1; stroke:none;" d="M367 104C374.163 108.858 370.013 113.842 374.145 119.546C377.724 124.485 379.906 116.616 379.985 114.043C380.037 112.365 380 110.678 380 109C403.504 107.383 386.668 75.8928 372.431 81.7556C367.722 83.6947 364.609 92.7878 362.323 97C360.489 100.38 355.905 106.524 357.752 110.573C360.484 116.561 366.022 106.03 367 104z"/>
<path style="fill:#7874af; stroke:none;" d="M242 82L242 86L243 86L242 82z"/>
<path style="fill:#8784b7; stroke:none;" d="M268.333 83.6667L268.667 84.3333L268.333 83.6667z"/>
<path style="fill:#7671ad; stroke:none;" d="M296 84L296 93L308 93L308 92L297 92L296 84z"/>
<path style="fill:#433d91; stroke:none;" d="M297 84L297 92C312.764 92 312.597 84.0019 297 84z"/>
<path style="fill:#8d89ba; stroke:none;" d="M235.333 86.6667L235.667 87.3333L235.333 86.6667z"/>
<path style="fill:#7773ae; stroke:none;" d="M318 86L318 91L319 91L318 86z"/>
<path style="fill:#a5a3c7; stroke:none;" d="M329.333 86.6667L329.667 87.3333L329.333 86.6667z"/>
<path style="fill:#a9a7ca; stroke:none;" d="M336.667 89.3333L337.333 89.6667L336.667 89.3333z"/>
<path style="fill:#433d91; stroke:none;" d="M375 89L371 98C384.484 105.677 388.612 94.8666 375 89z"/>
<path style="fill:#8885b7; stroke:none;" d="M270.333 90.6667L270.667 91.3333L270.333 90.6667z"/>
<path style="fill:#f0f0f1; stroke:none;" d="M224 111C225.019 113.17 231.213 121.51 232.435 114.78C233.122 110.994 229.6 106.904 227.665 104C221 93.9972 202.33 82.4867 196.603 101.001C193.961 109.541 199.776 117.384 204.334 123.985C205.796 126.103 209.059 131.346 212.297 128.809C215.171 126.556 211.896 122.118 213.197 119.224C214.903 115.427 220.562 112.949 224 111z"/>
<path style="fill:#8f8bbb; stroke:none;" d="M335.333 91.6667L335.667 92.3333L335.333 91.6667z"/>
<path style="fill:#a5a3c7; stroke:none;" d="M334.333 95.6667L334.667 96.3333L334.333 95.6667z"/>
<path style="fill:#b8b6d2; stroke:none;" d="M392 95L392 100L393 100L392 95z"/>
<path style="fill:#a4a2c7; stroke:none;" d="M279 96L279 99L280 99L279 96z"/>
<path style="fill:#8f8bbb; stroke:none;" d="M385 96L385 99L386 99L385 96z"/>
<path style="fill:#8784b7; stroke:none;" d="M272.333 97.6667L272.667 98.3333L272.333 97.6667z"/>
<path style="fill:#9a97c1; stroke:none;" d="M326 97L326 101L327 101L326 97z"/>
<path style="fill:#433d91; stroke:none;" d="M208.042 98.876C202.052 101.085 201.54 113.609 209.031 111.435C219.29 108.457 218.603 94.9814 208.042 98.876z"/>
<path style="fill:#8d89ba; stroke:none;" d="M340.667 98.3333L341.333 98.6667L340.667 98.3333z"/>
<path style="fill:#cecdde; stroke:none;" d="M291 99L291 100L309 100L291 99z"/>
<path style="fill:#7a76b0; stroke:none;" d="M195 103L195 108L196 108L195 103z"/>
<path style="fill:#a7a5c9; stroke:none;" d="M335.667 104.333L336.333 104.667L335.667 104.333z"/>
<path style="fill:#7773ae; stroke:none;" d="M372 107L372 114L373 114L372 107z"/>
<path style="fill:#9794bf; stroke:none;" d="M356 108L356 111L357 111L356 108z"/>
<path style="fill:#9390be; stroke:none;" d="M233 113L233 116L234 116L233 113z"/>
<path style="fill:#aba8cb; stroke:none;" d="M289 113L289 114L310 114L289 113z"/>
<path style="fill:#acaacb; stroke:none;" d="M281 114L281 115L286 115L281 114z"/>
<path style="fill:#f0f0f1; stroke:none;" d="M286 114.436C267.529 116.816 250.839 122.032 235 132.063C220.47 141.265 208.057 152.752 198.351 167C152.484 234.34 184.253 334.224 265 356.938C281.538 361.59 300.023 362.982 317 360.78C334.009 358.573 351.469 352.221 366 343.175C440.014 297.095 443.35 187.7 373 136.765C360.621 127.802 346.799 121.43 332 117.633C317.271 113.855 301.154 112.483 286 114.436M178 144C180.504 141.258 183.939 135.48 188.01 135.185C191.533 134.929 197.765 143.113 200.809 139.241C202.887 136.596 199.646 133.152 197.899 131.432C193.704 127.303 183.587 115.192 177.217 115.709C174.58 115.923 174.185 118.602 175.19 120.582C177.859 125.845 183.172 132.305 173.885 135.871C169.637 137.502 164.494 128.904 160.819 132.791C158.676 135.058 161.593 138.307 163.105 139.941C166.557 143.669 179.889 158.404 185.464 156.181C191.916 153.609 180.211 145.209 178 144z"/>
<path style="fill:#9592be; stroke:none;" d="M276 115L276 116L279 116L276 115z"/>
<path style="fill:#a8a5c9; stroke:none;" d="M321 115L321 116L324 116L321 115z"/>
<path style="fill:#9c99c3; stroke:none;" d="M173.333 117.667L173.667 118.333L173.333 117.667z"/>
<path style="fill:#8784b7; stroke:none;" d="M331.667 117.333L332.333 117.667L331.667 117.333z"/>
<path style="fill:#a5a2c8; stroke:none;" d="M287 120L287 121L292 121L287 120z"/>
<path style="fill:#6661a4; stroke:none;" d="M292 120L292 121L312 121L292 120z"/>
<path style="fill:#f0f0f1; stroke:none;" d="M415 120.73C393.325 127.64 404.516 162.142 425.999 155.029C447.666 147.856 437.266 113.632 415 120.73z"/>
<path style="fill:#928ebd; stroke:none;" d="M424.667 120.333L425.333 120.667L424.667 120.333z"/>
<path style="fill:#433d91; stroke:none;" d="M281 121.46C265.365 123.832 250.24 130.192 237 138.716C223.629 147.324 211.719 158.852 202.767 172C146.238 255.034 220.446 369.358 319 353.635C335.107 351.066 351.399 344.857 365 335.901C377.708 327.533 388.717 316.446 397.408 304C405.024 293.092 410.406 280.848 413.832 268C435.594 186.387 364.166 108.842 281 121.46z"/>
<path style="fill:#8885b7; stroke:none;" d="M322 122L322 123L325 123L322 122z"/>
<path style="fill:#a19ec5; stroke:none;" d="M327.667 123.333L328.333 123.667L327.667 123.333z"/>
<path style="fill:#433d91; stroke:none;" d="M417.011 127.848C403.98 132.913 411.939 152.362 424.985 147.283C436.979 142.613 429.272 123.083 417.011 127.848z"/>
<path style="fill:#8e8abb; stroke:none;" d="M210.667 130.333L211.333 130.667L210.667 130.333z"/>
<path style="fill:#bfbdd6; stroke:none;" d="M438 134L438 140L439 140L438 134z"/>
<path style="fill:#8e8bba; stroke:none;" d="M431 135L431 140L432 140L431 135z"/>
<path style="fill:#9491bd; stroke:none;" d="M293 136L293 137L305 137L293 136z"/>
<path style="fill:#f0f0f1; stroke:none;" d="M288 137.558C285.875 138.009 273.75 143.438 280.427 146.158C283.787 147.526 288.721 144.444 292 143.71C300.231 141.87 312.942 149.141 319.573 146.214C325.417 143.634 316.153 139.083 313.999 138.502C306.197 136.401 295.938 135.875 288 137.558z"/>
<path style="fill:#a19fc5; stroke:none;" d="M309 137L309 138L312 138L309 137z"/>
<path style="fill:#f0f0f1; stroke:none;" d="M262 170L265 170L276 147C267.002 150.446 262.53 160.894 262 170M271 180C286.474 180 303.106 178.712 311 163L314 163C316.104 171.281 321.166 177.833 330 179C330 170.904 330.103 163.616 324.605 157.031C312.945 143.065 285.654 143.08 274.838 158.011C270.059 164.608 271 172.283 271 180z"/>
<path style="fill:#a8a5c9; stroke:none;" d="M306 147L306 148L309 148L306 147z"/>
<path style="fill:#f0f0f1; stroke:none;" d="M325 147L324 148L335 170L338 170C337.721 160.889 333.356 151.323 325 147z"/>
<path style="fill:#7d79b1; stroke:none;" d="M418 148L418 149L423 149L418 148z"/>
<path style="fill:#a9a7ca; stroke:none;" d="M150 151L150 152L153 152L150 151z"/>
<path style="fill:#f0f0f1; stroke:none;" d="M149.013 153.191C129.914 162.193 149.156 194.252 168.989 181.922C173.531 179.098 176.455 174.374 176.751 169.004C176.872 166.803 176.279 162.644 173.114 163.13C166.294 164.176 168.958 180.611 157.011 177.239C143.04 173.295 152.445 163.619 154.07 156.101C154.782 152.811 151.429 152.053 149.013 153.191z"/>
<path style="fill:#a8a5c9; stroke:none;" d="M451 156L451 157L454 157L451 156z"/>
<path style="fill:#f0f0f1; stroke:none;" d="M438 171C442.302 186.11 451.299 181.991 444 168L452 165C452.691 167.427 457.383 181.761 461.823 176.241C465.467 171.71 457.223 157.694 451.969 157.443C446.215 157.168 426.628 165.576 424.366 171.045C421.413 178.183 436.202 171.759 438 171z"/>
<path style="fill:#b9b7d2; stroke:none;" d="M141 163L141 170L142 170L141 163z"/>
<path style="fill:#9592be; stroke:none;" d="M148 164L148 169L149 169L148 164z"/>
<path style="fill:#b9b7d2; stroke:none;" d="M270 168L270 180L271 180L270 168z"/>
<path style="fill:#9f9cc5; stroke:none;" d="M338 168L335 170L335 171C337.348 170.706 338.951 170.507 338 168M262 170L262 171L265 171L262 170z"/>
<path style="fill:#f0f0f1; stroke:none;" d="M271 184C271 191.376 269.299 208.134 279.071 210.557C284.802 211.979 290.573 206.57 295.753 211.412C301.052 216.366 294.774 220.877 290 222L290 223C317.265 232.796 329 204.754 329 183C321.901 180.773 316.799 176.346 313 170C298.426 177.114 288.601 187.195 271 184z"/>
<path style="fill:#908dbc; stroke:none;" d="M436.667 171.333L437.333 171.667L436.667 171.333z"/>
<path style="fill:#f0f0f1; stroke:none;" d="M282 216L282 214C266.667 212.419 267 202.622 267 190C267 186.097 269.018 174.694 262.926 174.513C254.082 174.25 251.668 187.641 253.52 193.973C257.037 205.993 270.037 215.975 282 216M335.714 175.191C331.301 178.369 329.805 208.178 340.557 201.393C346.699 197.517 348.851 188.795 346.166 182.115C344.94 179.065 339.584 172.405 335.714 175.191z"/>
<path style="fill:#a8a5c9; stroke:none;" d="M425 175L425 176L428 176L425 175z"/>
<path style="fill:#c9c8db; stroke:none;" d="M333 176L333 187L334 187L333 176z"/>
<path style="fill:#a6a4c8; stroke:none;" d="M161.667 177.333L162.333 177.667L161.667 177.333z"/>
<path style="fill:#9a97c1; stroke:none;" d="M287.667 179.333L288.333 179.667L287.667 179.333z"/>
<path style="fill:#b6b4d1; stroke:none;" d="M271 180L271 181L285 181L271 180z"/>
<path style="fill:#9f9cc4; stroke:none;" d="M290.667 182.333L291.333 182.667L290.667 182.333z"/>
<path style="fill:#9a97c2; stroke:none;" d="M286.667 183.333L287.333 183.667L286.667 183.333M329 183L329 198L330 198L329 183z"/>
<path style="fill:#a2a0c5; stroke:none;" d="M162.667 184.333L163.333 184.667L162.667 184.333z"/>
<path style="fill:#c2c0d8; stroke:none;" d="M273 184L273 185L284 185L273 184z"/>
<path style="fill:#8885b7; stroke:none;" d="M335 203L335 204L339 204L335 203z"/>
<path style="fill:#9b98c2; stroke:none;" d="M179.333 208.667L179.667 209.333L179.333 208.667z"/>
<path style="fill:#8783b7; stroke:none;" d="M186.333 208.667L186.667 209.333L186.333 208.667z"/>
<path style="fill:#8d8aba; stroke:none;" d="M414.333 208.667L414.667 209.333L414.333 208.667z"/>
<path style="fill:#9895c0; stroke:none;" d="M185 212L185 215L186 215L185 212z"/>
<path style="fill:#7d79b1; stroke:none;" d="M287 212L287 213L294 213L287 212z"/>
<path style="fill:#9996c0; stroke:none;" d="M415.333 212.667L415.667 213.333L415.333 212.667z"/>
<path style="fill:#928ebd; stroke:none;" d="M277 213L277 214L282 214L277 213z"/>
<path style="fill:#f0f0f1; stroke:none;" d="M286 213C287.964 222.26 300.364 213.123 286 213z"/>
<path style="fill:#8e8bba; stroke:none;" d="M298 213L298 217L299 217L298 213z"/>
<path style="fill:#a6a4c8; stroke:none;" d="M282 214L276 216L276 217C278.535 216.99 283.356 217.598 282 214z"/>
<path style="fill:#7671ad; stroke:none;" d="M184 217L184 221L185 221L184 217z"/>
<path style="fill:#b6b4d1; stroke:none;" d="M177 218L177 222L178 222L177 218z"/>
<path style="fill:#9491bd; stroke:none;" d="M288 221L288 222L294 222L288 221z"/>
<path style="fill:#9c99c3; stroke:none;" d="M417 223L417 228L418 228L417 223z"/>
<path style="fill:#aba8cb; stroke:none;" d="M293.667 224.333L294.333 224.667L293.667 224.333z"/>
<path style="fill:#c3c2d9; stroke:none;" d="M176 225L176 245L177 245L176 225z"/>
<path style="fill:#f0f0f1; stroke:none;" d="M285 225C281.596 248.205 319.402 247.585 315 225C302.735 228.489 297.245 228.665 285 225z"/>
<path style="fill:#8581b6; stroke:none;" d="M297 225L297 226L302 226L297 225z"/>
<path style="fill:#a8a5c9; stroke:none;" d="M304.667 228.333L305.333 228.667L304.667 228.333z"/>
<path style="fill:#adabcb; stroke:none;" d="M424 228L424 245L425 245L424 228z"/>
<path style="fill:#f0f0f1; stroke:none;" d="M243 270C243.485 256.914 255.006 259 265 259L334 259C344.006 259 357.007 256.691 358 270C363.441 264.655 357.452 258.118 353.957 253C344.907 239.745 335.422 231.466 319 230C314.501 251.938 286.51 250.339 281 230C264.794 230.471 254.902 240.165 246.335 253C243.047 257.925 236.019 265.626 243 270z"/>
<path style="fill:#a3a0c6; stroke:none;" d="M183 244L183 250L184 250L183 244z"/>
<path style="fill:#807cb3; stroke:none;" d="M296 246L296 247L303 247L296 246z"/>
<path style="fill:#b2b0cf; stroke:none;" d="M417 246L417 250L418 250L417 246z"/>
<path style="fill:#8783b7; stroke:none;" d="M423 252L423 257L424 257L423 252M184 254L184 257L185 257L184 254z"/>
<path style="fill:#bdbbd5; stroke:none;" d="M416 254L416 258L417 258L416 254z"/>
<path style="fill:#aba8cb; stroke:none;" d="M178 259L178 262L179 262L178 259z"/>
<path style="fill:#8f8bbb; stroke:none;" d="M185.333 260.667L185.667 261.333L185.333 260.667z"/>
<path style="fill:#8f8cbc; stroke:none;" d="M415 260L415 263L416 263L415 260z"/>
<path style="fill:#8885b7; stroke:none;" d="M249 262L249 263L351 263L319 262L249 262z"/>
<path style="fill:#f0f0f1; stroke:none;" d="M247 263C247.027 276.463 249.548 289.679 251.169 303C251.682 307.214 250.859 315.038 253.953 318.283C257.605 322.112 269.118 320 274 320L327 320C331.837 320 342.577 321.988 346.283 318.283C348.894 315.672 347.953 310.364 348.46 307C349.964 297.012 350.922 287.009 352.22 277C352.673 273.508 355.731 266.943 352.282 264.15C347.161 260.003 330.44 263 324 263L247 263z"/>
<path style="fill:#9c99c3; stroke:none;" d="M179 264L179 267L180 267L179 264z"/>
<path style="fill:#b6b4d1; stroke:none;" d="M357 264L357 271L358 271L357 264z"/>
<path style="fill:#9794bf; stroke:none;" d="M421.333 264.667L421.667 265.333L421.333 264.667z"/>
<path style="fill:#f0f0f1; stroke:none;" d="M238 272C232.316 285.717 229.375 300.47 247 306C246.979 295.632 247.588 278.03 238 272z"/>
<path style="fill:#9794bf; stroke:none;" d="M247 272L247 277L248 277L247 272z"/>
<path style="fill:#f0f0f1; stroke:none;" d="M361 272C353.124 279.634 353.061 296.395 353 307C366.339 299.806 372.925 284.647 361 272z"/>
<path style="fill:#837fb4; stroke:none;" d="M352 274L352 278L353 278L352 274z"/>
<path style="fill:#b9b7d2; stroke:none;" d="M298 283L298 284L302 284L298 283z"/>
<path style="fill:#433d91; stroke:none;" d="M296.129 284.954C285.811 289.584 293.785 305.859 303.926 300.584C314.033 295.327 306.616 280.249 296.129 284.954z"/>
<path style="fill:#9693bf; stroke:none;" d="M367 286L367 293L368 293L367 286z"/>
<path style="fill:#8e8bba; stroke:none;" d="M232 287L232 292L233 292L232 287z"/>
<path style="fill:#9a97c2; stroke:none;" d="M298 287L298 288L302 288L298 287z"/>
<path style="fill:#f0f0f1; stroke:none;" d="M297.412 289.164C292.467 292.388 297.585 300.097 302.588 296.836C307.533 293.612 302.415 285.903 297.412 289.164z"/>
<path style="fill:#a6a3c8; stroke:none;" d="M354 288L354 293L355 293L354 288z"/>
<path style="fill:#9c99c3; stroke:none;" d="M305 291L305 294L306 294L305 291z"/>
<path style="fill:#bdbcd5; stroke:none;" d="M309 291L309 295L310 295L309 291z"/>
<path style="fill:#8682b7; stroke:none;" d="M250 297L250 302L251 302L250 297z"/>
<path style="fill:#928ebd; stroke:none;" d="M247 302L246 307L247 302z"/>
<path style="fill:#8f8cbc; stroke:none;" d="M251 305L251 309L252 309L251 305z"/>
<path style="fill:#9693bf; stroke:none;" d="M348 306L348 310L349 310L348 306z"/>
<path style="fill:#f0f0f1; stroke:none;" d="M426 329C416.138 323.017 431.096 318.044 426.76 311.732C422.757 305.905 411.197 322.835 412.012 326.94C413.084 332.349 432.491 346.847 437.972 345.931C441.698 345.307 444.15 340.778 446.153 338C447.702 335.852 450.309 333.065 450.203 330.217C449.891 321.855 437.163 337.711 434.172 335.378C433.003 334.466 440.29 310.157 428.785 324.058C427.521 325.585 426.804 327.219 426 329z"/>
<path style="fill:#7b77b0; stroke:none;" d="M170 315L170 316L175 316L170 315z"/>
<path style="fill:#f0f0f1; stroke:none;" d="M184 335L190 335C189.829 308.629 150.885 311.842 155.376 337C156.013 340.568 167.324 356.615 170.067 347.657C171.935 341.555 158.846 338.051 163.543 329.064C169.51 317.645 182.038 325.44 184 335z"/>
<path style="fill:#9f9cc5; stroke:none;" d="M433 319L433 320L436 320L433 319z"/>
<path style="fill:#5a559e; stroke:none;" d="M256 320L256 321L344 321L316 320L256 320M253 323L253 324L347 324L317 323L253 323z"/>
<path style="fill:#f0f0f1; stroke:none;" d="M253 324C255.708 330.836 269.791 328 276 328L347 328L347 324L253 324z"/>
<path style="fill:#8d89ba; stroke:none;" d="M446.667 326.333L447.333 326.667L446.667 326.333z"/>
<path style="fill:#9f9cc5; stroke:none;" d="M254 328L254 329L346 329L317 328L254 328z"/>
<path style="fill:#928ebd; stroke:none;" d="M190 330L190 333L191 333L190 330z"/>
<path style="fill:#a19ec5; stroke:none;" d="M183.333 331.667L183.667 332.333L183.333 331.667z"/>
<path style="fill:#9d9ac3; stroke:none;" d="M186.667 335.333L187.333 335.667L186.667 335.333z"/>
<path style="fill:#f0f0f1; stroke:none;" d="M402.996 335.772C380.147 341.814 393.472 379.281 415.999 368.971C418.798 367.69 431.028 354.829 422.037 354.825C414.596 354.821 412.67 368.333 403.091 361.267C390.597 352.05 405.509 346.95 408.634 339.704C410.182 336.116 405.473 335.117 402.996 335.772M196 343.72C173.211 350.561 184.348 385.246 207 377.735C228.34 370.659 217.306 337.325 196 343.72z"/>
<path style="fill:#a9a7ca; stroke:none;" d="M166 350L166 351L169 351L166 350z"/>
<path style="fill:#433d91; stroke:none;" d="M198.011 350.741C184.891 354.754 190.844 375.264 203.989 371.131C217.193 366.979 211.09 346.741 198.011 350.741z"/>
<path style="fill:#7873af; stroke:none;" d="M390 350L390 355L391 355L390 350z"/>
<path style="fill:#8d8aba; stroke:none;" d="M271.667 351.333L272.333 351.667L271.667 351.333z"/>
<path style="fill:#a4a1c6; stroke:none;" d="M275 352L275 353L278 353L275 352z"/>
<path style="fill:#9794bf; stroke:none;" d="M323 352L323 353L326 353L323 352z"/>
<path style="fill:#928ebd; stroke:none;" d="M286 354L286 355L291 355L286 354z"/>
<path style="fill:#7f7bb2; stroke:none;" d="M306 354L306 355L314 355L306 354z"/>
<path style="fill:#8985b7; stroke:none;" d="M391.333 357.667L391.667 358.333L391.333 357.667z"/>
<path style="fill:#9996c1; stroke:none;" d="M271 358L271 359L274 359L271 358z"/>
<path style="fill:#9f9cc4; stroke:none;" d="M276 359L276 360L279 360L276 359z"/>
<path style="fill:#f0f0f1; stroke:none;" d="M368 359.7C352.461 364.012 355.352 372.206 361.249 384C362.852 387.205 366.556 398.566 371.615 397.067C376.657 395.573 370.059 387.75 373.557 384.998C377.361 382.005 388.279 392.774 390.067 386.595C391.165 382.8 385.684 380.736 384.513 377.744C383.33 374.721 385.175 371.189 384.511 368.003C382.962 360.58 374.69 357.844 368 359.7z"/>
<path style="fill:#bfbdd6; stroke:none;" d="M281 360L281 361L285 361L281 360z"/>
<path style="fill:#9b98c2; stroke:none;" d="M288 361L288 362L295 362L288 361z"/>
<path style="fill:#8885b7; stroke:none;" d="M406 363L406 364L411 364L406 363z"/>
<path style="fill:#8f8cbc; stroke:none;" d="M183.333 364.667L183.667 365.333L183.333 364.667z"/>
<path style="fill:#8a87b8; stroke:none;" d="M218.333 364.667L218.667 365.333L218.333 364.667z"/>
<path style="fill:#f0f0f1; stroke:none;" d="M235.031 365.953C227.617 369.091 225.433 380.063 223.361 387C222.698 389.22 220.713 396.175 225.063 396.175C232.858 396.175 231.532 369.528 240.787 373.366C247.258 376.048 239.23 389.791 238.074 393.999C237.44 396.308 236.527 400.912 240.071 401.372C249.001 402.531 245.575 378.435 255.025 378.435C263.504 378.435 254.304 396.214 253.562 399.999C253.137 402.163 252.776 408.183 256.752 406.939C260.553 405.75 262.132 397.284 263.298 394C265.774 387.032 268.683 376.954 260.926 372.17C257.538 370.081 253.537 370.616 250 369.055C244.935 366.819 240.866 363.484 235.031 365.953z"/>
<path style="fill:#433d91; stroke:none;" d="M363 370L367 379C381.68 374.041 376.819 362.132 363 370z"/>
<path style="fill:#aca9cb; stroke:none;" d="M354 367L354 370L355 370L354 367z"/>
<path style="fill:#f0f0f1; stroke:none;" d="M338 401L336 393C338.107 392.696 354.216 388.483 346.573 384.744C343.152 383.07 337.559 385.487 334 386L333 380C335.623 379.447 350.866 376.957 346.181 371.715C343.042 368.202 327.309 373.141 325.835 377.213C323.992 382.304 329.586 402.397 333.032 406.56C335.884 410.006 353.134 406.483 353.87 401.807C354.901 395.262 340.52 400.09 338 401z"/>
<path style="fill:#a4a2c7; stroke:none;" d="M337.667 371.333L338.333 371.667L337.667 371.333z"/>
<path style="fill:#a19fc5; stroke:none;" d="M333.667 372.333L334.333 372.667L333.667 372.333z"/>
<path style="fill:#9996c1; stroke:none;" d="M329 373L329 374L332 374L329 373z"/>
<path style="fill:#b3b1d0; stroke:none;" d="M286 376L286 377L292 377L286 376z"/>
<path style="fill:#7f7bb2; stroke:none;" d="M303 376L303 377L308 377L303 376z"/>
<path style="fill:#7e7ab2; stroke:none;" d="M253 377L253 378L257 378L253 377z"/>
<path style="fill:#f0f0f1; stroke:none;" d="M298 380C282.441 370.226 277 385.01 277 398C277 401.332 275.868 407.502 278.145 410.268C280.862 413.567 283.592 409.652 283.899 406.958C284.305 403.383 281.853 380.036 290.788 384.933C296.227 387.914 293.937 399.906 294.004 404.999C294.029 406.87 293.727 412.429 297 411.87C305.802 410.367 293.676 386.547 305 385.13C312.477 384.194 309.89 401.831 310.015 405.996C310.086 408.397 310.766 414.008 314.63 411.749C318.076 409.734 317 403.299 317 400C317.001 390.01 313.071 366.995 298 380z"/>
<path style="fill:#9a97c1; stroke:none;" d="M204.667 378.333L205.333 378.667L204.667 378.333z"/>
<path style="fill:#bcbad4; stroke:none;" d="M266 379L266 384L267 384L266 379z"/>
<path style="fill:#8582b6; stroke:none;" d="M259 380L259 384L260 384L259 380z"/>
<path style="fill:#9592be; stroke:none;" d="M287 383L287 384L291 384L287 383z"/>
<path style="fill:#6e6aa9; stroke:none;" d="M284 386L284 409L285 409L284 386z"/>
<path style="fill:#a5a3c7; stroke:none;" d="M293 386L293 411L294 411L293 386z"/>
<path style="fill:#9491bd; stroke:none;" d="M300 387L300 410L301 410L300 387z"/>
<path style="fill:#9794bf; stroke:none;" d="M327.333 387.667L327.667 388.333L327.333 387.667z"/>
<path style="fill:#9491be; stroke:none;" d="M328.333 391.667L328.667 392.333L328.333 391.667z"/>
<path style="fill:#8885b7; stroke:none;" d="M343.667 391.333L344.333 391.667L343.667 391.333z"/>
<path style="fill:#9996c1; stroke:none;" d="M221 392L221 395L222 395L221 392z"/>
<path style="fill:#8e8abb; stroke:none;" d="M339.667 392.333L340.333 392.667L339.667 392.333M374 393L374 396L375 396L374 393z"/>
<path style="fill:#7e7ab2; stroke:none;" d="M309 394L309 410L310 410L309 394z"/>
<path style="fill:#928fbd; stroke:none;" d="M329.333 395.667L329.667 396.333L329.333 395.667z"/>
<path style="fill:#9b98c2; stroke:none;" d="M346.667 398.333L347.333 398.667L346.667 398.333z"/>
<path style="fill:#8f8cbc; stroke:none;" d="M330.333 399.667L330.667 400.333L330.333 399.667z"/>
<path style="fill:#9996c0; stroke:none;" d="M239 402L239 403L242 403L239 402z"/>
<path style="fill:#b3b1d0; stroke:none;" d="M252 402L252 406L253 406L252 402z"/>
<path style="fill:#8d8aba; stroke:none;" d="M331.333 403.667L331.667 404.333L331.333 403.667z"/>
<path style="fill:#8b88b9; stroke:none;" d="M279 412L279 413L282 413L279 412z"/>
</svg>
